<?xml version="1.0" encoding="UTF-8"?>
<svg width="32px" height="32px" viewBox="0 0 32 32" version="1.1" xmlns="http://www.w3.org/2000/svg" xmlns:xlink="http://www.w3.org/1999/xlink">
    <!-- Generator: Sketch 51.2 (57519) - http://www.bohemiancoding.com/sketch -->
    <title>icon-twi</title>
    <desc>Created with Sketch.</desc>
    <defs></defs>
    <g id="Website" stroke="none" stroke-width="1" fill="none" fill-rule="evenodd">
        <g id="yumx-web" transform="translate(-1306.000000, -5719.000000)" fill="#FFFFFF">
            <g id="Group-9" transform="translate(0.000000, 5667.000000)">
                <g id="Group-8" transform="translate(1210.000000, 52.000000)">
                    <path d="M118.362,12.737 C118.368,12.878 118.372,13.019 118.372,13.162 C118.372,17.499 115.07,22.501 109.032,22.501 C107.178,22.501 105.453,21.958 104,21.027 C104.257,21.057 104.518,21.072 104.783,21.072 C106.321,21.072 107.736,20.548 108.86,19.667 C107.423,19.641 106.211,18.692 105.793,17.388 C105.994,17.426 106.199,17.446 106.411,17.446 C106.71,17.446 107,17.406 107.276,17.331 C105.774,17.03 104.643,15.703 104.643,14.113 L104.643,14.071 C105.085,14.317 105.592,14.465 106.13,14.482 C105.249,13.893 104.669,12.888 104.669,11.75 C104.669,11.148 104.831,10.584 105.114,10.099 C106.733,12.085 109.152,13.392 111.88,13.529 C111.824,13.289 111.795,13.038 111.795,12.781 C111.795,10.968 113.265,9.498 115.077,9.498 C116.022,9.498 116.875,9.897 117.473,10.535 C118.221,10.388 118.924,10.115 119.558,9.739 C119.313,10.505 118.792,11.148 118.115,11.555 C118.779,11.475 119.411,11.299 120,11.038 C119.56,11.696 119.003,12.274 118.362,12.737 M112,0 C103.163,0 96,7.163 96,16 C96,24.836 103.163,32 112,32 C120.837,32 128,24.836 128,16 C128,7.163 120.837,0 112,0" id="icon-twi"></path>
                </g>
            </g>
        </g>
    </g>
</svg>