<?xml version="1.0" encoding="UTF-8"?>
<svg width="32px" height="32px" viewBox="0 0 32 32" version="1.1" xmlns="http://www.w3.org/2000/svg" xmlns:xlink="http://www.w3.org/1999/xlink">
    <!-- Generator: Sketch 51.2 (57519) - http://www.bohemiancoding.com/sketch -->
    <title>icon-ins</title>
    <desc>Created with Sketch.</desc>
    <defs></defs>
    <g id="Website" stroke="none" stroke-width="1" fill="none" fill-rule="evenodd">
        <g id="yumx-web" transform="translate(-1210.000000, -5719.000000)" fill="#FFFFFF">
            <g id="Group-9" transform="translate(0.000000, 5667.000000)">
                <g id="Group-8" transform="translate(1210.000000, 52.000000)">
                    <g id="icon-ins">
                        <path d="M19.448,12.051 L21.611,12.051 C21.858,12.051 22.059,11.851 22.059,11.605 L22.059,9.446 C22.059,9.2 21.858,9 21.611,9 L19.448,9 C19.201,9 19,9.2 19,9.446 L19,11.605 C19,11.851 19.201,12.051 19.448,12.051" id="Fill-203"></path>
                        <path d="M16.077,19.139 C17.776,19.139 19.154,17.765 19.154,16.069 C19.154,14.374 17.776,13 16.077,13 C14.378,13 13,14.374 13,16.069 C13,17.765 14.378,19.139 16.077,19.139" id="Fill-202"></path>
                        <path d="M24,22.102 C24,23.15 23.149,24 22.098,24 L9.902,24 C8.852,24 8,23.15 8,22.102 L8,9.897 C8,8.849 8.852,8 9.902,8 L22.098,8 C23.149,8 24,8.849 24,9.897 L24,22.102 Z M16,0 C7.163,0 0,7.163 0,16 C0,24.836 7.163,32 16,32 C24.837,32 32,24.836 32,16 C32,7.163 24.837,0 16,0 L16,0 Z" id="Fill-204"></path>
                        <path d="M21.058,15.284 C21.058,17.961 18.875,20.14 16.191,20.14 C13.507,20.14 11.324,17.961 11.324,15.284 C11.324,14.84 11.384,14.409 11.497,14 L10,14 L10,20.958 C10,21.205 10.2,21.405 10.447,21.405 L21.934,21.405 C22.182,21.405 22.382,21.205 22.382,20.958 L22.382,14 L20.885,14 C20.998,14.409 21.058,14.84 21.058,15.284" id="Fill-205"></path>
                    </g>
                </g>
            </g>
        </g>
    </g>
</svg>