<?xml version="1.0" encoding="UTF-8"?>
<svg width="54px" height="54px" viewBox="0 0 54 54" version="1.1" xmlns="http://www.w3.org/2000/svg" xmlns:xlink="http://www.w3.org/1999/xlink">
    <!-- Generator: Sketch 51.2 (57519) - http://www.bohemiancoding.com/sketch -->
    <title>logo/reg</title>
    <desc>Created with Sketch.</desc>
    <defs></defs>
    <g id="Website" stroke="none" stroke-width="1" fill="none" fill-rule="evenodd">
        <g id="yumx-web" transform="translate(-1321.000000, -39.000000)">
            <g id="logo/reg" transform="translate(1321.000000, 39.000000)">
                <g id="Group-5">
                    <g id="Group-Copy-2" transform="translate(0.675000, 0.000000)">
                        <path d="M23.625,9.31684872 C17.8721989,8.61356977 12.9532397,5.17971257 10.1781077,0.337505074 L14.3089619,0.3375 C16.8950668,3.82144398 21.0124565,6.075 25.65,6.075 C30.2875435,6.075 34.4049332,3.82144398 36.9910381,0.3375 L41.4593952,0.3375 C38.6842603,5.17971257 33.7653011,8.61356977 28.0125,9.31684872 L28.0125,13.8375 L23.625,13.8375 L23.625,9.31684872 Z" id="Combined-Shape" fill="#ED4C5D"></path>
                        <path d="M3.24720266e-31,37.4625 C2.23713718e-15,23.1100001 11.5594481,11.475 25.81875,11.475 C40.0780519,11.475 51.6375,23.1100001 51.6375,37.4625 L1.77635684e-15,37.4625 Z" id="Combined-Shape-Copy-7" fill="#4E8092"></path>
                        <path d="M3.0375,37.4625 C3.0375,24.787565 13.237013,14.5125 25.81875,14.5125 C38.400487,14.5125 48.6,24.787565 48.6,37.4625 L3.0375,37.4625 Z" id="Combined-Shape-Copy-7" fill="#71BEC6"></path>
                        <ellipse id="Oval-3-Copy-7" fill="#B6E0DE" cx="25.65" cy="26.49375" rx="9.45" ry="9.61875"></ellipse>
                    </g>
                    <path d="M3.86469042,54 L3.86469042,49.4491638 L0,42.525 L2.24106308,42.525 L4.90137266,47.4909727 L7.57692757,42.525 L9.7875,42.525 L5.93805491,49.41 L5.93805491,54 L3.86469042,54 Z M18.1989504,54 C16.7699356,54 15.6857861,53.6306312 14.9464695,52.8918826 C14.2071528,52.1531339 13.8375,51.1119515 13.8375,49.7683042 L13.8375,42.525 L15.8619275,42.525 L15.8619275,49.5906965 C15.8619275,50.5327941 16.0467539,51.2200517 16.4164122,51.6524899 C16.7860706,52.0849281 17.3926485,52.301144 18.2361641,52.301144 C19.0647942,52.301144 19.6651699,52.0836411 20.0373092,51.6486289 C20.4094484,51.2136166 20.5955153,50.525072 20.5955153,49.5829744 L20.5955153,42.525 L22.6125,42.525 L22.6125,49.7837483 C22.6125,51.1170995 22.2354045,52.1531339 21.4812023,52.8918826 C20.727,53.6306312 19.632927,54 18.1989504,54 Z M28.0125,54 L28.0125,42.525 L30.4203689,42.525 L33.7537623,50.8120648 L37.1097295,42.525 L39.4875,42.525 L39.4875,54 L37.6063525,54 L37.6063525,48.3290785 L37.6665492,45.0784812 L37.3881393,45.9400853 L34.566418,53.2167235 L32.8207131,53.2167235 L30.0591885,45.9009215 L29.7807787,45.0393174 L29.8485,48.3604096 L29.8485,54 L28.0125,54 Z M43.875,54 L47.6998343,48.1254266 L44.1583211,42.525 L46.4323454,42.525 L49.0046024,46.8016894 L51.6514175,42.525 L53.8061487,42.525 L50.1900773,48.1567577 L54,54 L51.6663292,54 L48.9076767,49.5353242 L46.0893778,54 L43.875,54 Z" id="YUMX" fill="#4C7C8E"></path>
                </g>
            </g>
        </g>
    </g>
</svg>