<?xml version="1.0" encoding="UTF-8"?>
<svg width="63px" height="11px" viewBox="0 0 63 11" version="1.1" xmlns="http://www.w3.org/2000/svg" xmlns:xlink="http://www.w3.org/1999/xlink">
    <!-- Generator: Sketch 51.2 (57519) - http://www.bohemiancoding.com/sketch -->
    <title>Icon/rating/4</title>
    <desc>Created with Sketch.</desc>
    <defs></defs>
    <g id="Website" stroke="none" stroke-width="1" fill="none" fill-rule="evenodd">
        <g id="yumx-web" transform="translate(-1065.000000, -4462.000000)">
            <g id="reviewCard-Copy" transform="translate(753.000000, 4452.000000)">
                <g id="Icon/rating/4" transform="translate(311.000000, 9.000000)">
                    <g id="Stars" stroke-width="1" fill-rule="evenodd" transform="translate(1.000000, 1.000000)">
                        <path d="M5.81365031,0.236161601 L6.99163155,3.89191485 L10.6722596,3.936581 C10.9889829,3.94044634 11.1200973,4.3634864 10.8660631,4.56147773 L7.91312018,6.86522073 L9.00997437,10.5484608 C9.10421287,10.8654188 8.76126668,11.126544 8.5027254,10.9345654 L5.50020487,8.70254596 L2.4972746,10.9341359 C2.23914306,11.1261145 1.89578713,10.8645598 1.99002563,10.5480314 L3.08687982,6.86479125 L0.133936927,4.56104825 C-0.120097289,4.36305692 0.0110171454,3.94001686 0.32774045,3.93615152 L4.00836845,3.89148536 L5.18634969,0.235732119 C5.28796338,-0.0786489167 5.71244636,-0.0786489167 5.81365031,0.236161601 Z" id="Star" fill="#ED4C5D" fill-rule="nonzero"></path>
                        <path d="M18.8136503,0.236161601 L19.9916316,3.89191485 L23.6722596,3.936581 C23.9889829,3.94044634 24.1200973,4.3634864 23.8660631,4.56147773 L20.9131202,6.86522073 L22.0099744,10.5484608 C22.1042129,10.8654188 21.7612667,11.126544 21.5027254,10.9345654 L18.5002049,8.70254596 L15.4972746,10.9341359 C15.2391431,11.1261145 14.8957871,10.8645598 14.9900256,10.5480314 L16.0868798,6.86479125 L13.1339369,4.56104825 C12.8799027,4.36305692 13.0110171,3.94001686 13.3277404,3.93615152 L17.0083684,3.89148536 L18.1863497,0.235732119 C18.2879634,-0.0786489167 18.7124464,-0.0786489167 18.8136503,0.236161601 Z" id="Star" fill="#ED4C5D" fill-rule="nonzero"></path>
                        <path d="M31.8136503,0.236161601 L32.9916316,3.89191485 L36.6722596,3.936581 C36.9889829,3.94044634 37.1200973,4.3634864 36.8660631,4.56147773 L33.9131202,6.86522073 L35.0099744,10.5484608 C35.1042129,10.8654188 34.7612667,11.126544 34.5027254,10.9345654 L31.5002049,8.70254596 L28.4972746,10.9341359 C28.2391431,11.1261145 27.8957871,10.8645598 27.9900256,10.5480314 L29.0868798,6.86479125 L26.1339369,4.56104825 C25.8799027,4.36305692 26.0110171,3.94001686 26.3277404,3.93615152 L30.0083684,3.89148536 L31.1863497,0.235732119 C31.2879634,-0.0786489167 31.7124464,-0.0786489167 31.8136503,0.236161601 Z" id="Star" fill="#ED4C5D" fill-rule="nonzero"></path>
                        <path d="M44.8136503,0.236161601 L45.9916316,3.89191485 L49.6722596,3.936581 C49.9889829,3.94044634 50.1200973,4.3634864 49.8660631,4.56147773 L46.9131202,6.86522073 L48.0099744,10.5484608 C48.1042129,10.8654188 47.7612667,11.126544 47.5027254,10.9345654 L44.5002049,8.70254596 L41.4972746,10.9341359 C41.2391431,11.1261145 40.8957871,10.8645598 40.9900256,10.5480314 L42.0868798,6.86479125 L39.1339369,4.56104825 C38.8799027,4.36305692 39.0110171,3.94001686 39.3277404,3.93615152 L43.0083684,3.89148536 L44.1863497,0.235732119 C44.2879634,-0.0786489167 44.7124464,-0.0786489167 44.8136503,0.236161601 Z" id="Star" fill="#ED4C5D" fill-rule="nonzero"></path>
                        <path d="M57.8136503,0.236161601 L58.9916316,3.89191485 L62.6722596,3.936581 C62.9889829,3.94044634 63.1200973,4.3634864 62.8660631,4.56147773 L59.9131202,6.86522073 L61.0099744,10.5484608 C61.1042129,10.8654188 60.7612667,11.126544 60.5027254,10.9345654 L57.5002049,8.70254596 L54.4972746,10.9341359 C54.2391431,11.1261145 53.8957871,10.8645598 53.9900256,10.5480314 L55.0868798,6.86479125 L52.1339369,4.56104825 C51.8799027,4.36305692 52.0110171,3.94001686 52.3277404,3.93615152 L56.0083684,3.89148536 L57.1863497,0.235732119 C57.2879634,-0.0786489167 57.7124464,-0.0786489167 57.8136503,0.236161601 Z" id="Star" fill="#FDE4E7" fill-rule="nonzero"></path>
                    </g>
                    <text id="(36)" font-family="Oxygen-Regular, Oxygen" font-size="14" font-weight="normal"></text>
                </g>
            </g>
        </g>
    </g>
</svg>